<?xml version="1.0" encoding="utf-8"?>
<svg width="34px" height="34px" viewBox="0 0 34 34" version="1.1" xmlns:xlink="http://www.w3.org/1999/xlink" xmlns="http://www.w3.org/2000/svg">
  <defs>
    <linearGradient x1="-0.845605" y1="8.54041" x2="2.0885706" y2="-8.858539" id="gradient_1">
      <stop offset="0" stop-color="#C90099" />
      <stop offset="0.638" stop-color="#F67622" />
      <stop offset="1" stop-color="#D8D8D8" />
      <stop offset="1" stop-color="#D8D8D8" />
    </linearGradient>
    <linearGradient x1="-0.72396517" y1="9.104007" x2="2.080623" y2="-10.532721" id="gradient_2">
      <stop offset="0" stop-color="#C90099" />
      <stop offset="0.638" stop-color="#F67622" />
      <stop offset="1" stop-color="#D8D8D8" />
      <stop offset="1" stop-color="#D8D8D8" />
    </linearGradient>
    <linearGradient x1="-1.5652293" y1="12.180923" x2="1.5030987" y2="-5.218" id="gradient_3">
      <stop offset="0" stop-color="#C90099" />
      <stop offset="0.638" stop-color="#F67622" />
      <stop offset="1" stop-color="#D8D8D8" />
      <stop offset="1" stop-color="#D8D8D8" />
    </linearGradient>
    <linearGradient x1="-0.2652699" y1="1.8670043" x2="1.2702279" y2="-1.0082415" id="gradient_4">
      <stop offset="0" stop-color="#C90099" />
      <stop offset="0.638" stop-color="#F67622" />
      <stop offset="1" stop-color="#D8D8D8" />
      <stop offset="1" stop-color="#D8D8D8" />
    </linearGradient>
    <linearGradient x1="-1.4936591" y1="11.647" x2="1.3838536" y2="-4.5091667" id="gradient_5">
      <stop offset="0" stop-color="#C90099" />
      <stop offset="0.638" stop-color="#F67622" />
      <stop offset="1" stop-color="#D8D8D8" />
      <stop offset="1" stop-color="#D8D8D8" />
    </linearGradient>
    <linearGradient x1="-0.4687146" y1="2.355835" x2="1.0667809" y2="-0.50207937" id="gradient_6">
      <stop offset="0" stop-color="#C90099" />
      <stop offset="0.638" stop-color="#F67622" />
      <stop offset="1" stop-color="#D8D8D8" />
      <stop offset="1" stop-color="#D8D8D8" />
    </linearGradient>
  </defs>
  <g id="solis-full-logo">
    <path d="M16.8583 18.7601L16.8583 18.7601C16.7874 18.9026 16.3624 19.3298 14.0958 19.6147L14.0958 19.6147C12.0416 19.8996 8.8541 19.8996 6.3041 19.8996C5.94993 19.8996 5.52493 19.8996 5.09994 19.8996C4.10827 19.8996 3.1166 19.8996 2.12493 19.8996C1.77077 19.8996 1.48743 19.8996 1.2041 19.8996C0.849935 19.8996 0.566602 19.8996 0.283268 19.8996C0.212435 19.4723 0.141602 19.045 0.141602 18.6177C0.424935 18.6177 0.779102 18.6177 1.06243 18.6177C1.34577 18.6177 1.69993 18.6177 1.98327 18.6177C2.2666 18.6177 2.4791 18.6177 2.76243 18.6177C3.39994 18.6177 4.03743 18.6177 4.67494 18.6177C7.43744 18.6177 10.5541 18.6177 12.6791 18.3328C14.4499 18.1192 15.6541 17.6919 16.3624 17.1222C16.3624 17.1934 16.4333 17.2646 16.4333 17.3358C16.4333 17.407 16.5041 17.4783 16.5041 17.5495C16.7166 17.9056 16.9999 18.5465 16.8583 18.7601Z" id="Path" fill="url(#gradient_1)" stroke="none" />
    <path d="M18.2041 21.8935L18.2041 21.8935C18.1333 22.036 17.7083 22.4633 15.3708 22.7481L15.3708 22.7481C13.3166 23.033 10.1291 23.033 7.57909 22.9618C7.22492 22.9618 6.79992 22.9618 6.37492 22.9618C5.31242 22.9618 4.24992 22.9618 3.11659 22.9618C2.76242 22.9618 2.40825 22.9618 2.12492 22.9618C1.77075 22.9618 1.41659 22.9618 1.13325 22.9618C1.06242 22.8905 1.06242 22.7481 0.991585 22.6769C0.849919 22.392 0.779085 22.1072 0.708252 21.8223C0.991585 21.8223 1.34575 21.8223 1.69992 21.8223C2.05409 21.8223 2.33742 21.8223 2.69159 21.8223C3.54159 21.8223 4.39159 21.8223 5.17075 21.8223C5.59575 21.8223 5.94992 21.8223 6.37492 21.8223C9.13742 21.8223 12.2541 21.8223 14.3791 21.5375C15.9374 21.3238 17.0708 21.039 17.8499 20.5405C17.8499 20.5405 17.8499 20.5405 17.8499 20.5405C17.8499 20.6117 17.9208 20.6829 17.9208 20.7541C17.9916 21.039 18.3458 21.6799 18.2041 21.8935Z" id="Path_00000162313521592530689770000009878033124234402949_" fill="url(#gradient_2)" stroke="none" />
    <path d="M33.9292 15.3419C33.6459 15.3419 33.2917 15.4131 33.0084 15.4131C32.725 15.4131 32.3709 15.4131 32.0875 15.4843C31.025 15.4843 29.8917 15.5555 28.9709 15.5555C28.4042 15.5555 27.9084 15.5555 27.4834 15.5555C25.2875 15.6267 22.4542 15.6979 20.6834 15.9828C19.9042 16.1252 18.9834 16.3389 18.275 16.8374C18.275 16.8374 18.275 16.8374 18.275 16.7661C18.0625 16.3389 17.85 15.6979 17.9209 15.4843L17.9209 15.4843C17.9209 15.4843 18.0625 15.057 19.8334 14.7009L19.8334 14.7009C21.5334 14.4161 24.1542 14.2736 26.35 14.2736C26.8459 14.2736 27.4125 14.2736 27.9792 14.2736C29.4667 14.2736 30.8125 14.2024 31.9459 14.2024C32.3 14.2024 32.5834 14.2024 32.8667 14.1312C33.2209 14.1312 33.5042 14.06 33.7875 14.06C33.7875 14.4873 33.8584 14.9146 33.9292 15.3419Z" id="Path_00000097471102854230751810000014470685761163815835_" fill="url(#gradient_3)" stroke="none" />
    <path d="M34.0001 17.1934C34.0001 17.4071 34.0001 17.6207 34.0001 17.8344C33.9292 18.9738 33.7876 20.1132 33.5042 21.1814C33.2209 22.2496 32.7959 23.3179 32.3001 24.3861C31.3084 26.3801 30.0334 28.1604 28.4042 29.5847C26.7751 31.009 24.8626 32.2197 22.8084 32.9318C20.8959 33.6439 18.9834 34 17.0001 34C16.7167 34 16.3626 34 16.0792 34C13.8126 33.8576 11.6167 33.2879 9.56256 32.2909C7.57923 31.2939 5.8084 30.012 4.39173 28.3741C3.4709 27.3059 2.6209 26.1664 1.9834 24.9558C2.33757 24.9558 2.69173 24.9558 3.0459 24.9558C3.40006 24.9558 3.75423 24.9558 4.1084 24.9558C4.88757 24.9558 5.66673 24.9558 6.37506 24.9558C6.80007 24.9558 7.15423 24.9558 7.57923 24.9558C10.3417 24.9558 13.4584 24.9558 15.5834 24.6709C17.7792 24.3861 19.1251 23.8876 19.6917 23.033C20.4001 21.9648 19.9042 20.7541 19.5501 20.042C19.5501 19.9708 19.4792 19.8996 19.4792 19.8284C19.2667 19.4011 19.0542 18.8314 19.1251 18.6177L19.1251 18.6177C19.1251 18.6177 19.2667 18.1904 21.0376 17.9056L21.0376 17.9056C22.7376 17.6207 25.4292 17.5495 27.5542 17.4783C27.9792 17.4783 28.4751 17.4783 29.0417 17.4783C30.1751 17.4783 31.2376 17.4071 32.1584 17.4071C32.5126 17.4071 32.7959 17.4071 33.0792 17.4071C33.3626 17.1934 33.7167 17.1934 34.0001 17.1934Z" id="Path_00000098195298735098201050000006754596613609049732_" fill="url(#gradient_4)" stroke="none" />
    <path d="M33.3626 12.2084C33.0792 12.2084 32.7251 12.2796 32.3709 12.2796C32.0876 12.2796 31.7334 12.2796 31.3792 12.3508C30.1751 12.422 28.8292 12.422 27.8376 12.422C27.2001 12.422 26.6334 12.422 26.2084 12.422C24.0126 12.4932 21.1792 12.5644 19.4084 12.8493C18.5584 12.9917 17.4959 13.2766 16.7167 13.9175C16.7167 13.9175 16.7167 13.8463 16.7167 13.8463C16.7167 13.7751 16.6459 13.7039 16.6459 13.6327C16.4334 13.2054 16.2209 12.6357 16.2917 12.422L16.2917 12.422C16.2917 12.422 16.4334 11.9947 18.2042 11.7099L18.2042 11.7099C19.9042 11.425 22.5251 11.3538 24.7209 11.2826C25.8542 11.2826 28.6876 11.2114 30.9542 11.0689C31.3084 11.0689 31.5917 10.9977 31.9459 10.9977C32.3001 10.9977 32.5834 10.9265 32.9376 10.9265C33.0084 10.9977 33.0084 11.1402 33.0792 11.2114C33.1501 11.4962 33.2209 11.8523 33.3626 12.2084Z" id="Path_00000007415232832579000530000003762071992573865654_" fill="url(#gradient_5)" stroke="none" />
    <path d="M32.0167 9.00375C31.7333 9.00375 31.3792 9.07496 31.025 9.07496C30.6708 9.07496 30.3167 9.14617 29.9625 9.14617C28.3333 9.21739 26.35 9.2886 24.5792 9.35982C22.3833 9.35982 19.55 9.50225 17.7792 9.7871C16.575 10.0007 14.875 10.428 14.45 11.7811C14.1667 12.7069 14.5208 13.5615 14.875 14.416C14.875 14.4873 14.9458 14.5585 14.9458 14.6297C15.0875 14.9145 15.3708 15.5555 15.2292 15.7691L15.2292 15.7691C15.1583 15.8403 14.7333 16.3388 12.4667 16.6237L12.4667 16.6237C10.4125 16.9085 7.225 16.9085 4.675 16.9085C4.0375 16.9085 3.4 16.9085 2.7625 16.9085C2.47917 16.9085 2.19583 16.9085 1.84167 16.9085C1.55833 16.9085 1.20417 16.9085 0.920833 16.9085C0.6375 16.9085 0.283333 16.9085 0 16.9085C0 16.6237 0 16.3388 0 16.1252C0.141667 13.8463 0.708333 11.6387 1.7 9.57346C2.69167 7.57946 3.96667 5.87031 5.59583 4.37481C7.225 2.87931 9.1375 1.73988 11.1917 1.02773C13.3167 0.244375 15.5833 -0.111697 17.85 0.0307313C20.1167 0.17316 22.3125 0.742875 24.3667 1.73988C26.35 2.73688 28.1208 4.01874 29.5375 5.65667C30.6 6.51124 31.3792 7.72189 32.0167 9.00375Z" id="Path_00000158749281443305894820000007774854896631433643_" fill="url(#gradient_6)" stroke="none" />
  </g>
</svg>